<?xml version="1.0" encoding="UTF-8"?>
<svg xmlns="http://www.w3.org/2000/svg" xml:space="preserve" version="1.1" style="shape-rendering:geometricPrecision; text-rendering:geometricPrecision; image-rendering:optimizeQuality; fill-rule:evenodd; clip-rule:evenodd"
viewBox="1200 1300 7400 7400">
 <defs>
  <style type="text/css">
   <![CDATA[
    .fil0 {fill:#0AA6A9}
    .fil1 {fill:#F7AE7E}
   ]]>
  </style>
 </defs>
 <g>
  <path class="fil0" d="M5081 3202c-131,-278 -168,-401 -378,-571 -141,-114 -414,-292 -659,-284 -58,324 112,664 256,842 149,184 382,367 718,399l30 98 124 -1c200,-402 226,-617 552,-1088 63,-92 218,-256 244,-323 -97,-57 -436,-230 -551,-251 -64,177 -129,367 -186,565 -40,138 -106,513 -150,614z"/>
  <path class="fil1" d="M5012 7977c36,-22 1006,-676 1833,-1569 321,-345 759,-915 718,-1605 -36,-618 -522,-1191 -1063,-1297 -691,-128 -1139,300 -1490,834 -88,-83 -192,-235 -276,-333 -316,-370 -667,-581 -1169,-515 -543,79 -1025,598 -1114,1185 -110,730 335,1293 637,1660 706,849 1879,1623 1924,1640zm379 -3179c28,35 354,322 389,342 43,-4 54,-20 90,-26 45,-8 84,-1 130,0l243 -591c-21,-15 -49,-31 -68,-48 -26,-23 -34,-39 -56,-65 -43,6 -130,45 -175,62l-534 196c1,77 -11,78 -19,130zm-519 586l788 -38c12,-33 16,-59 30,-86 14,-29 28,-41 39,-73l-385 -336c-70,10 -25,34 -169,12 -35,29 -332,400 -347,425 8,28 29,52 44,96zm-1414 463c68,3 112,-11 179,18 37,16 88,80 109,77l750 -426 -6 -52 -1040 -48c-13,62 -47,90 -96,121 2,47 82,250 104,310zm1612 71c100,-11 80,-13 167,21 25,-14 434,-366 478,-420l-42 -106c-81,-9 -733,23 -779,38l-58 122c20,59 190,278 234,345zm1074 -416c16,24 332,232 358,241 25,-14 41,-37 63,-54 20,-16 48,-26 70,-45 0,-56 -91,-473 -109,-556l-107 -528c-11,-24 -6,-13 -15,-23l-100 3c-41,96 -88,198 -128,297 -156,386 -151,244 -56,370 19,27 33,48 44,80 33,96 -8,143 -20,215zm-851 484c8,71 26,108 -2,175 -30,68 -9,57 29,113 50,74 114,155 145,212 40,-4 63,-18 102,-23 37,-5 70,0 106,0 37,-142 60,-280 92,-424 19,-86 87,-348 82,-434 -43,-12 -56,-37 -95,-17 -30,15 -416,379 -459,398zm-1597 308c19,37 188,187 239,234 193,177 59,89 297,63l315 -900c24,-70 44,-60 -5,-116 -47,0 -326,173 -386,208 -133,78 -247,142 -381,216 -2,69 20,94 -5,174 -22,72 -47,74 -74,121zm2802 -267c-4,-33 -25,-50 -31,-98 -6,-53 6,-78 9,-127l-375 -248c-34,12 -49,31 -82,44 -122,50 -78,-95 -192,458l-89 434c64,67 65,54 195,-44l565 -419zm-1534 152c6,-44 -16,-74 -5,-134 10,-53 33,-53 49,-98l-226 -328c-59,7 -66,16 -144,16l-259 727c-22,65 -77,203 -80,257l56 29 459 -358c54,-41 87,-81 150,-111zm255 67c-41,2 -54,23 -116,15 -41,-5 -58,-24 -89,-35 -12,1 -586,449 -615,487l36 67 687 -34c104,-8 217,25 230,-35 8,-36 -1,-40 22,-92 11,-25 39,-63 46,-84 -9,-25 -180,-263 -201,-289zm-454 -998c20,-6 347,-411 349,-423 -14,-61 -44,-67 -32,-152 6,-48 28,-79 68,-105 106,-68 171,-17 239,42l704 -256c1,-141 3,-192 91,-266 157,-132 409,-20 415,184 4,127 -53,166 -117,232 -8,18 96,514 108,571l111 557c111,24 151,22 218,102 94,111 67,346 -131,402 -140,39 -174,-34 -253,-54l-696 515c4,40 22,45 23,107 3,208 -199,317 -369,235 -69,-33 -87,-74 -122,-136l-947 42c-20,27 -27,103 -99,149 -53,34 -132,46 -201,22 -54,-19 -101,-63 -122,-119 -37,-98 -4,-128 12,-202l-218 -207c-225,-203 -108,-148 -251,-138 -131,9 -219,-66 -256,-175 -21,-62 -18,-125 8,-181 87,-191 145,24 10,-362 -25,-71 -7,-61 -77,-83 -277,-83 -71,-472 153,-313 45,32 45,71 68,93 28,28 382,30 440,33 113,7 514,37 598,29 65,-143 98,-150 276,-143z"/>
 </g>
</svg>
