<?xml version="1.0" encoding="UTF-8"?>
<svg xmlns="http://www.w3.org/2000/svg" xml:space="preserve" version="1.1" style="shape-rendering:geometricPrecision; text-rendering:geometricPrecision; image-rendering:optimizeQuality; fill-rule:evenodd; clip-rule:evenodd" viewBox="700 3900 8900 2600" xmlns:xlink="http://www.w3.org/1999/xlink">
 <defs>
  <style type="text/css">
   <![CDATA[
    .str0 {stroke:#0AA6A9;stroke-width:20.84}
    .fil3 {fill:none;fill-rule:nonzero}
    .fil0 {fill:#0AA6A9}
    .fil1 {fill:#F7AE7E}
    .fil2 {fill:#0AA6A9;fill-rule:nonzero}
   ]]>
  </style>
 </defs>
 <g id="Layer_x0020_1">
  <path class="fil0" d="M1965 4199c-57,-122 -74,-176 -165,-250 -62,-51 -182,-129 -290,-125 -25,142 50,291 113,369 65,81 167,161 315,175l13 43 54 0c88,-177 100,-271 242,-477 28,-41 96,-113 107,-142 -42,-25 -191,-101 -241,-110 -28,77 -57,161 -82,247 -17,61 -46,226 -66,270z"/>
  <path class="fil1" d="M1935 6294c16,-10 441,-297 804,-689 141,-151 333,-401 315,-704 -15,-271 -229,-522 -466,-569 -303,-56 -500,132 -654,366 -38,-36 -84,-103 -121,-146 -138,-162 -292,-255 -513,-226 -238,35 -449,263 -488,520 -49,320 147,567 279,728 310,372 824,712 844,720zm167 -1395c12,15 155,141 170,150 19,-2 24,-9 40,-12 19,-3 37,0 56,1l107 -259c-9,-7 -21,-14 -30,-22 -11,-10 -14,-17 -24,-28 -19,2 -57,19 -77,27l-234 86c0,34 -5,34 -8,57zm-228 257l346 -17c5,-14 6,-25 12,-37 7,-13 13,-18 18,-32l-169 -148c-31,5 -11,15 -74,5 -16,13 -146,176 -153,187 4,12 13,23 20,42zm-621 203c30,2 49,-5 79,8 16,7 39,35 48,34l329 -187 -3 -23 -456 -21c-6,27 -21,40 -42,53 1,21 36,110 45,136zm707 31c44,-4 36,-5 74,9 11,-5 190,-160 210,-183l-19 -47c-35,-4 -321,10 -342,17l-25 53c9,26 83,122 102,151zm472 -182c7,10 145,102 157,105 11,-6 18,-16 27,-23 9,-7 21,-12 31,-20 0,-25 -40,-207 -48,-244l-47 -231c-4,-11 -2,-6 -6,-10l-44 1c-18,42 -39,87 -56,130 -68,169 -66,107 -25,163 9,11 15,21 19,34 15,43 -3,63 -8,95zm-373 212c3,31 11,48 -2,77 -12,30 -3,25 13,50 22,32 50,67 64,93 17,-2 27,-8 45,-11 16,-2 30,0 46,1 16,-63 26,-123 41,-187 8,-37 38,-152 35,-190 -18,-5 -24,-16 -41,-8 -14,7 -183,167 -201,175zm-701 135c8,17 82,82 105,103 84,78 25,39 130,27l138 -394c11,-31 20,-27 -2,-51 -20,0 -143,76 -170,91 -58,34 -108,62 -167,95 0,30 9,41 -2,76 -9,32 -20,33 -32,53zm1229 -117c-2,-15 -11,-22 -13,-43 -3,-23 2,-34 3,-56l-164 -109c-15,6 -22,14 -36,20 -54,22 -34,-42 -84,201l-39 190c28,30 28,24 85,-19l248 -184zm-673 67c3,-19 -7,-33 -2,-59 4,-23 14,-23 21,-43l-99 -144c-25,3 -29,7 -63,7l-113 319c-10,29 -34,89 -36,113l25 12 201 -157c24,-17 39,-35 66,-48zm112 29c-18,1 -24,10 -51,7 -18,-3 -25,-11 -39,-15 -5,0 -257,196 -270,213l16 29 301 -14c46,-4 96,10 101,-16 4,-16 0,-17 10,-40 5,-11 17,-28 20,-37 -4,-11 -79,-115 -88,-127zm-199 -438c8,-2 152,-180 153,-185 -6,-27 -19,-30 -14,-67 3,-21 12,-35 30,-46 46,-30 75,-7 105,18l309 -112c0,-62 1,-84 39,-117 69,-57 179,-8 182,81 2,56 -23,73 -51,102 -3,8 42,226 48,251l48 244c49,10 66,10 96,45 41,48 29,151 -58,176 -61,17 -76,-15 -111,-24l-305 226c2,18 9,20 10,47 2,91 -87,139 -162,103 -30,-14 -38,-32 -54,-60l-415 19c-9,12 -12,45 -43,65 -23,15 -58,21 -88,10 -24,-8 -45,-28 -54,-52 -16,-43 -2,-56 5,-89l-95 -91c-99,-89 -48,-65 -110,-60 -58,4 -97,-29 -113,-77 -9,-27 -8,-55 4,-80 38,-83 64,11 4,-158 -11,-31 -3,-27 -34,-36 -121,-37 -31,-207 67,-138 20,14 20,31 30,41 13,12 168,13 194,15 49,3 225,16 262,12 28,-63 43,-66 121,-63z"/>
  <g id="_1301078208">
   <polygon class="fil2" points="4999,6143 4943,6251 4943,6317 4920,6317 4920,6251 4863,6143 4888,6143 4931,6231 4974,6143 "/>
   <path id="1" class="fil2" d="M5113 6318c-16,0 -31,-3 -44,-11 -13,-8 -24,-18 -32,-32 -7,-13 -11,-28 -11,-45 0,-17 4,-33 11,-46 8,-14 19,-24 32,-32 13,-7 28,-11 44,-11 17,0 31,4 45,11 13,8 23,18 31,32 8,13 12,28 12,46 0,17 -4,32 -12,45 -8,14 -18,24 -31,32 -14,8 -28,11 -45,11zm0 -19c12,0 23,-3 33,-9 10,-5 17,-14 23,-24 6,-10 8,-23 8,-36 0,-14 -2,-27 -8,-37 -6,-10 -13,-18 -23,-24 -9,-6 -20,-9 -33,-9 -12,0 -23,3 -33,9 -9,6 -17,14 -23,24 -5,10 -8,23 -8,37 0,13 3,26 8,36 6,10 14,19 23,24 10,6 21,9 33,9z"/>
   <path id="2" class="fil2" d="M5264 6143l0 110c0,15 4,27 11,34 8,8 18,11 32,11 13,0 23,-3 31,-11 8,-7 11,-19 11,-34l0 -110 23 0 0 110c0,14 -3,26 -9,36 -6,10 -13,17 -23,22 -10,5 -21,7 -34,7 -12,0 -23,-2 -33,-7 -10,-5 -18,-12 -23,-22 -6,-10 -9,-22 -9,-36l0 -110 23 0z"/>
   <path id="3" class="fil2" d="M5513 6317l-42 -71 -27 0 0 71 -23 0 0 -174 56 0c13,0 24,2 33,6 10,5 16,11 21,19 4,7 7,16 7,26 0,12 -4,22 -11,32 -7,9 -17,15 -31,18l44 73 -27 0zm-69 -90l33 0c12,0 22,-3 28,-9 6,-6 9,-14 9,-24 0,-10 -3,-18 -9,-24 -6,-6 -15,-9 -28,-9l-33 0 0 66z"/>
   <polygon id="4" class="fil2" points="5787,6317 5764,6317 5673,6178 5673,6317 5650,6317 5650,6142 5673,6142 5764,6281 5764,6142 5787,6142 "/>
   <path id="5" class="fil2" d="M5859 6143l0 110c0,15 4,27 11,34 8,8 18,11 32,11 13,0 24,-3 31,-11 8,-7 12,-19 12,-34l0 -110 22 0 0 110c0,14 -3,26 -8,36 -6,10 -14,17 -24,22 -10,5 -21,7 -33,7 -13,0 -24,-2 -34,-7 -10,-5 -17,-12 -23,-22 -6,-10 -9,-22 -9,-36l0 -110 23 0z"/>
   <polygon id="6" class="fil2" points="6123,6143 6123,6161 6076,6161 6076,6317 6053,6317 6053,6161 6005,6161 6005,6143 "/>
   <path id="7" class="fil2" d="M6254 6317l-42 -71 -27 0 0 71 -23 0 0 -174 56 0c14,0 25,2 34,6 9,5 16,11 20,19 5,7 7,16 7,26 0,12 -4,22 -11,32 -6,9 -17,15 -31,18l44 73 -27 0zm-69 -90l33 0c13,0 22,-3 28,-9 6,-6 9,-14 9,-24 0,-10 -3,-18 -9,-24 -6,-6 -15,-9 -28,-9l-33 0 0 66z"/>
   <polygon id="8" class="fil2" points="6348,6143 6348,6317 6325,6317 6325,6143 "/>
   <polygon id="9" class="fil2" points="6504,6143 6504,6161 6457,6161 6457,6317 6434,6317 6434,6161 6387,6161 6387,6143 "/>
   <polygon id="10" class="fil2" points="6566,6143 6566,6317 6543,6317 6543,6143 "/>
   <path id="11" class="fil2" d="M6695 6318c-17,0 -31,-3 -45,-11 -13,-8 -23,-18 -31,-32 -8,-13 -12,-28 -12,-45 0,-17 4,-33 12,-46 8,-14 18,-24 31,-32 14,-7 28,-11 45,-11 16,0 31,4 44,11 13,8 24,18 31,32 8,13 12,28 12,46 0,17 -4,32 -12,45 -7,14 -18,24 -31,32 -13,8 -28,11 -44,11zm0 -19c12,0 23,-3 32,-9 10,-5 18,-14 23,-24 6,-10 9,-23 9,-36 0,-14 -3,-27 -9,-37 -5,-10 -13,-18 -22,-24 -10,-6 -21,-9 -33,-9 -13,0 -24,3 -33,9 -10,6 -18,14 -23,24 -6,10 -9,23 -9,37 0,13 3,26 9,36 5,10 13,19 23,24 10,6 20,9 33,9z"/>
   <polygon id="12" class="fil2" points="6960,6317 6937,6317 6846,6178 6846,6317 6823,6317 6823,6142 6846,6142 6937,6281 6937,6142 6960,6142 "/>
   <path id="13" class="fil2" d="M7208 6193c-5,-10 -12,-18 -21,-23 -9,-6 -20,-9 -32,-9 -12,0 -23,3 -33,9 -10,5 -17,13 -23,24 -6,10 -8,22 -8,36 0,13 2,25 8,36 6,10 13,18 23,23 10,6 21,9 33,9 17,0 31,-5 42,-16 11,-10 17,-23 19,-41l-69 0 0 -18 93 0 0 17c-1,15 -6,28 -13,40 -8,12 -18,21 -30,28 -13,7 -27,10 -42,10 -16,0 -31,-4 -44,-11 -14,-8 -24,-18 -32,-32 -8,-13 -12,-28 -12,-45 0,-17 4,-33 12,-46 8,-14 18,-24 32,-32 13,-7 28,-11 44,-11 18,0 35,4 49,13 14,10 24,22 31,39l-27 0z"/>
   <path id="14" class="fil2" d="M7303 6143l0 110c0,15 4,27 12,34 7,8 18,11 31,11 14,0 24,-3 32,-11 7,-7 11,-19 11,-34l0 -110 23 0 0 110c0,14 -3,26 -9,36 -6,10 -14,17 -24,22 -10,5 -21,7 -33,7 -12,0 -23,-2 -33,-7 -10,-5 -18,-12 -24,-22 -5,-10 -8,-22 -8,-36l0 -110 22 0z"/>
   <polygon id="15" class="fil2" points="7483,6143 7483,6317 7461,6317 7461,6143 "/>
   <path id="16" class="fil2" d="M7587 6143c19,0 36,3 49,10 14,7 25,18 32,31 8,13 11,28 11,46 0,18 -3,33 -11,46 -7,13 -18,23 -32,30 -13,7 -30,11 -49,11l-54 0 0 -174 54 0zm0 155c23,0 40,-6 52,-18 11,-12 17,-28 17,-50 0,-22 -6,-38 -18,-51 -11,-12 -29,-18 -51,-18l-31 0 0 137 31 0z"/>
   <polygon id="17" class="fil2" points="7743,6161 7743,6219 7807,6219 7807,6238 7743,6238 7743,6298 7814,6298 7814,6317 7720,6317 7720,6142 7814,6142 7814,6161 "/>
   <g>
    <path class="fil2" d="M3482 4990c0,-156 43,-279 130,-368 86,-89 206,-133 358,-133 152,0 272,44 358,133 87,89 130,212 130,368l0 699 -275 0 0 -690c0,-81 -19,-144 -56,-187 -37,-44 -89,-66 -157,-66 -70,0 -122,22 -159,66 -36,43 -54,106 -54,187l0 690 -275 0 0 -699z"/>
    <path class="fil2" d="M5629 5214c0,157 -43,280 -130,369 -87,88 -206,133 -358,133 -153,0 -272,-45 -359,-133 -86,-89 -129,-212 -129,-369l0 -698 275 0 0 690c0,81 18,143 55,187 37,44 90,65 158,65 69,0 122,-21 158,-65 37,-44 55,-106 55,-187l0 -690 275 0 0 698z"/>
    <path class="fil2" d="M6597 4913c0,-265 129,-397 388,-397l142 0 0 248 -115 0c-50,0 -86,11 -108,33 -21,22 -32,59 -32,109l0 783 -275 0 0 -776z"/>
    <path class="fil2" d="M8565 5715c-122,0 -231,-26 -327,-78 -96,-52 -171,-126 -225,-221 -54,-95 -81,-204 -81,-326 0,-124 28,-234 84,-330 56,-97 133,-172 229,-225 97,-54 204,-80 320,-80 117,0 224,26 320,79 96,53 172,126 227,220 56,94 84,199 84,316 0,97 -19,186 -58,264 -38,79 -89,144 -155,196l211 0 0 185 -629 0zm-406 -625c0,82 18,155 53,219 36,64 84,114 146,149 62,36 131,53 207,53 77,0 146,-17 208,-52 62,-35 110,-84 146,-148 35,-64 53,-138 53,-221 0,-83 -18,-157 -54,-222 -36,-64 -85,-115 -148,-151 -62,-35 -130,-53 -205,-53 -74,0 -142,18 -204,53 -63,36 -112,87 -148,151 -36,65 -54,139 -54,222z"/>
    <path id="1" class="fil3 str0" d="M8565 5715c-122,0 -231,-26 -327,-78 -96,-52 -171,-126 -225,-221 -54,-95 -81,-204 -81,-326 0,-124 28,-234 84,-330 56,-97 133,-172 229,-225 97,-54 204,-80 320,-80 117,0 224,26 320,79 96,53 172,126 227,220 56,94 84,199 84,316 0,97 -19,186 -58,264 -38,79 -89,144 -155,196l211 0 0 185 -629 0zm-406 -625c0,82 18,155 53,219 36,64 84,114 146,149 62,36 131,53 207,53 77,0 146,-17 208,-52 62,-35 110,-84 146,-148 35,-64 53,-138 53,-221 0,-83 -18,-157 -54,-222 -36,-64 -85,-115 -148,-151 -62,-35 -130,-53 -205,-53 -74,0 -142,18 -204,53 -63,36 -112,87 -148,151 -36,65 -54,139 -54,222z"/>
    <g>
     <path class="fil0" d="M5826 4203l275 -94c0,663 0,658 -2,1580l-276 0c2,-626 3,-993 3,-1486z"/>
     <rect class="fil0" x="6080" y="4514" width="322" height="251"/>
    </g>
    <g>
     <polygon class="fil0" points="7428,4525 7701,4525 7701,5689 7428,5689 "/>
     <path class="fil0" d="M7449 4384c153,17 262,-59 322,-138 75,-101 76,-266 63,-393 -171,0 -247,46 -322,140 -73,93 -70,254 -63,391z"/>
    </g>
   </g>
  </g>
 </g>
</svg>
